[URL=http://imageshack.us/photo/my-images/850/spideybanner3.jpg/][IMG]http://img850.imageshack.us/img850/701/spideybanner3.jpg[/IMG][/URL]

8 8 "Back in Black" TBA TBA May 13, 2012 (2012-05-13) 108 
When the terrifying Venom returns, Spider-Man (who has come down with a cold at the time) tries to stop the villain and save Harry Osborn. 
Spider-Man must decide if he can trust his new teammates with the shocking truth about Venom before asking for their help.  
File info
----------
Format                           : Matroska
File size                        : 710 MiB
Duration                         : 22mn 8s
Overall bit rate                 : 4 481 Kbps
Encoded date                     : UTC 2012-05-14 08:21:52
Writing application              : mkvmerge v5.5.0 ('Healer') built on Apr  6 2012 21:43:24
Writing library                  : libebml v1.2.3 + libmatroska v1.3.0

Video
ID                               : 1
Format                           : AVC
Format/Info                      : Advanced Video Codec
Format profile                   : High@L3.1
Format settings, CABAC           : No
Format settings, ReFrames        : 2 frames
Format settings, GOP             : M=2, N=19
Muxing mode                      : Header stripping
Codec ID                         : V_MPEG4/ISO/AVC
Duration                         : 22mn 8s
Bit rate                         : 4 008 Kbps
Width                            : 1 280 pixels
Height                           : 720 pixels
Display aspect ratio             : 16:9
Frame rate                       : 23.976 fps
Color space                      : YUV
Chroma subsampling               : 4:2:0
Bit depth                        : 8 bits
Scan type                        : Progressive
Bits/(Pixel*Frame)               : 0.181
Stream size                      : 635 MiB (89%)
Language                         : English
Color primaries                  : BT.709-5, BT.1361, IEC 61966-2-4, SMPTE RP177
Transfer characteristics         : BT.709-5, BT.1361
Matrix coefficients              : BT.709-5, BT.1361, IEC 61966-2-4 709, SMPTE RP177

Audio
ID                               : 2
Format                           : AC-3
Format/Info                      : Audio Coding 3
Mode extension                   : CM (complete main)
Muxing mode                      : Header stripping
Codec ID                         : A_AC3
Duration                         : 22mn 8s
Bit rate mode                    : Constant
Bit rate                         : 384 Kbps
Channel(s)                       : 6 channels
Channel positions                : Front: L C R, Side: L R, LFE
Sampling rate                    : 48.0 KHz
Bit depth                        : 16 bits
Compression mode                 : Lossy
Stream size                      : 60.8 MiB (9%)
Language                         : English

[URL=http://img526.imageshack.us/i/ultimatespidermans01e08.jpg/][IMG]http://img526.imageshack.us/img526/6431/ultimatespidermans01e08.jpg[/IMG][/URL]
[URL=http://img259.imageshack.us/i/ultimatespidermans01e08.jpg/][IMG]http://img259.imageshack.us/img259/6431/ultimatespidermans01e08.jpg[/IMG][/URL]